<?xml version="1.0" encoding="utf-8"?><svg width="146" height="30" xmlns="http://www.w3.org/2000/svg"><g fill="#000" fill-rule="nonzero"><path d="M22.627 1.41c.421-.625.036-1.41-.683-1.41H10.293C7.845 0 5.891.654 4.446 1.954 3.007 3.247 2.179 5.114 1.954 7.54l-.56 6.356c-.203 2.426.298 4.293 1.512 5.586 1.22 1.3 3.058 1.954 5.506 1.954h2.658v-.015c.523-.072.814-.392.865-.959l.276-3.116a.924.924 0 0 0-.937-1.024H9.792c-.96 0-1.635-.21-2.02-.625-.385-.421-.53-1.126-.443-2.12l.502-5.696c.087-.995.355-1.7.813-2.12.458-.422 1.162-.633 2.128-.633h7.867c.93 0 1.83-.494 2.368-1.293l1.62-2.426z"/><path d="M.247 28.525c-.421.625-.036 1.41.683 1.41h11.818c2.455 0 4.402-.654 5.848-1.954 1.438-1.293 2.266-3.153 2.491-5.58l.56-6.355c.203-2.426-.298-4.293-1.511-5.586-1.22-1.3-3.059-1.954-5.506-1.954h-2.66v.015c-.522.072-.813.392-.863.958l-.276 3.117a.924.924 0 0 0 .937 1.024h1.481c.96 0 1.635.21 2.02.625.385.42.53 1.125.443 2.12l-.501 5.696c-.088.995-.356 1.7-.814 2.12-.458.422-1.162.633-2.128.633H4.235c-.93 0-1.83.494-2.368 1.293l-1.62 2.418zM40.33 29.935H25.103c-.654 0-.951-.327-.893-.981L26.659.981c.058-.654.414-.981 1.06-.981h15.225c.618 0 .901.327.843.98l-.269 3.16c-.058.654-.4.981-1.017.981h-9.733c-.37 0-.574.174-.603.516l-.53 6.05c-.03.342.145.51.515.51h7.961c.654 0 .952.326.894.98l-.276 3.167c-.058.654-.414.98-1.06.98h-7.97c-.37 0-.573.175-.602.509l-.567 6.472c-.029.341.146.509.516.509h9.726c.618 0 .901.326.843.98l-.276 3.167c-.05.647-.392.974-1.01.974M56.746 29.935h-5.078c-2.455 0-4.285-.654-5.506-1.954-1.22-1.3-1.721-3.182-1.51-5.63l1.292-14.76c.218-2.448 1.046-4.33 2.492-5.63C49.889.654 51.836 0 54.29 0h5.077c2.419 0 4.25.661 5.484 1.976 1.235 1.322 1.744 3.189 1.533 5.608l-.189 2.186c-.058.683-.428 1.024-1.111 1.024h-3.908c-.654 0-.945-.341-.886-1.024l.167-1.91c.087-.996-.058-1.7-.443-2.122-.385-.42-1.068-.624-2.063-.624h-3.167c-.96 0-1.671.21-2.129.624-.457.422-.726 1.126-.813 2.122L50.6 22.06c-.087.996.059 1.7.444 2.122.385.42 1.053.624 2.019.624h3.167c.995 0 1.714-.21 2.172-.624.458-.422.726-1.126.813-2.121l.168-1.91c.058-.684.414-1.025 1.067-1.025h3.908c.683 0 .996.341.937 1.024l-.188 2.187c-.211 2.418-1.054 4.293-2.514 5.607-1.482 1.33-3.428 1.99-5.847 1.99M78.378 29.935H74.47c-.683 0-.995-.327-.937-.981l2.04-23.324c.03-.342-.123-.516-.464-.516h-5.31c-.654 0-.952-.327-.893-.98l.276-3.168c.05-.64.406-.966 1.06-.966h17.593c.654 0 .952.327.894.98l-.276 3.168c-.058.653-.414.98-1.06.98H82.09c-.37 0-.574.175-.603.516L79.446 28.97c-.066.639-.415.966-1.068.966M97.663.98l-2.448 27.981c-.058.654-.414.98-1.06.98h-3.959c-.654 0-.951-.326-.893-.98L91.75.981C91.809.327 92.165 0 92.81 0h3.959c.654 0 .952.327.893.98M131.833 24.814h3.305c.995 0 1.714-.211 2.172-.625.458-.421.726-1.126.813-2.121l1.243-14.201c.087-.995-.058-1.7-.443-2.121-.385-.422-1.068-.625-2.063-.625h-3.306c-.995 0-1.707.21-2.15.625-.443.421-.704 1.126-.791 2.12l-1.243 14.202c-.087.995.051 1.7.422 2.12.363.415 1.046.626 2.04.626m3.836 5.12h-5.215c-2.455 0-4.286-.653-5.506-1.953-1.22-1.3-1.722-3.182-1.511-5.63l1.293-14.76c.218-2.448 1.046-4.33 2.491-5.63C128.666.654 130.62 0 133.075 0h5.216c2.447 0 4.285.654 5.506 1.954 1.22 1.3 1.721 3.182 1.51 5.63l-1.292 14.76c-.218 2.455-1.046 4.33-2.492 5.63-1.453 1.307-3.407 1.96-5.855 1.96M115.881 10.01h3.96c.653 0 1.009-.342 1.067-1.025l.123-1.394c.211-2.42-.29-4.293-1.51-5.608C118.3.661 116.477 0 114.058 0h-4.932c-2.455 0-4.402.654-5.848 1.954-1.445 1.308-2.28 3.182-2.491 5.637l-1.293 14.76c-.218 2.455.29 4.33 1.51 5.637 1.221 1.3 3.059 1.954 5.507 1.954h4.932c2.419 0 4.358-.661 5.804-1.976 1.453-1.322 2.28-3.189 2.491-5.608l.683-7.772c.066-.712-.261-1.068-.98-1.068h-9.211c-.726 0-1.242.785-.937 1.41l1.199 2.418c.399.8 1.213 1.293 2.142 1.293h1.01c.341 0 .494.175.465.516l-.254 2.935c-.087.995-.349 1.7-.792 2.12-.443.422-1.155.625-2.15.625h-3.03c-.958 0-1.634-.21-2.019-.624-.385-.422-.53-1.126-.443-2.121l1.242-14.201c.088-.996.356-1.7.814-2.121.458-.422 1.162-.632 2.128-.632h3.03c.995 0 1.67.21 2.04.632.364.42.509 1.125.422 2.12l-.102 1.12c-.058.66.24 1.002.886 1.002"/></g></svg>